<svg width="15" height="13" viewBox="0 0 15 13" fill="none" xmlns="http://www.w3.org/2000/svg">
<path d="M14.4444 3.61111V12.2778C14.4444 12.4693 14.3684 12.653 14.2329 12.7885C14.0975 12.9239 13.9138 13 13.7222 13H0.722222C0.530677 13 0.346977 12.9239 0.211534 12.7885C0.076091 12.653 0 12.4693 0 12.2778V2.88889H13.7222C13.9138 2.88889 14.0975 2.96498 14.2329 3.10042C14.3684 3.23587 14.4444 3.41957 14.4444 3.61111ZM7.52122 1.44444H0V0.722222C0 0.530677 0.076091 0.346977 0.211534 0.211534C0.346977 0.076091 0.530677 0 0.722222 0H6.07678L7.52122 1.44444Z" fill="currentColor"/>
</svg>
