<svg width="21" height="20" viewBox="0 0 21 20" fill="none" xmlns="http://www.w3.org/2000/svg">
<path d="M10.9771 0.27832C5.45205 0.27832 0.977052 4.75332 0.977052 10.2783C0.975918 12.3776 1.63587 14.4239 2.86327 16.127C4.09067 17.8301 5.8232 19.1034 7.81505 19.7663C8.31505 19.8533 8.50205 19.5533 8.50205 19.2903C8.50205 19.0533 8.48905 18.2663 8.48905 17.4283C5.97705 17.8913 5.32705 16.8163 5.12705 16.2533C5.01405 15.9653 4.52705 15.0783 4.10205 14.8403C3.75205 14.6533 3.25205 14.1903 4.08905 14.1783C4.87705 14.1653 5.43905 14.9033 5.62705 15.2033C6.52705 16.7153 7.96505 16.2903 8.53905 16.0283C8.62705 15.3783 8.88905 14.9413 9.17705 14.6913C6.95205 14.4413 4.62705 13.5783 4.62705 9.75332C4.62705 8.66532 5.01405 7.76632 5.65205 7.06532C5.55205 6.81532 5.20205 5.79032 5.75205 4.41532C5.75205 4.41532 6.58905 4.15332 8.50205 5.44132C9.31611 5.21538 10.1572 5.10166 11.0021 5.10332C11.8521 5.10332 12.7021 5.21532 13.5021 5.44032C15.4141 4.14032 16.2521 4.41632 16.2521 4.41632C16.8021 5.79132 16.4521 6.81632 16.3521 7.06632C16.9891 7.76632 17.3771 8.65332 17.3771 9.75332C17.3771 13.5913 15.0401 14.4413 12.8151 14.6913C13.1771 15.0033 13.4901 15.6033 13.4901 16.5413C13.4901 17.8783 13.4771 18.9533 13.4771 19.2913C13.4771 19.5533 13.6651 19.8653 14.1651 19.7653C16.1501 19.0951 17.875 17.8193 19.097 16.1175C20.3189 14.4156 20.9765 12.3734 20.9771 10.2783C20.9771 4.75332 16.5021 0.27832 10.9771 0.27832Z" fill="#607B96"/>
</svg>
